P2
8 8
16
0 0 4 12 12 5 0 0 0 1 10 12 12 10 1 0 0 2 10 10 11 9 1 0 0 1 9 14 13 5 0 0 0 0 7 14 12 3 0 0 0 0 9 12 12 5 0 0 0 0 9 11 11 8 0 0 0 0 4 12 12 6 0 0 