P2
8 8
16
0 0 8 13 13 11 3 0 0 3 14 13 9 8 2 0 0 4 14 5 1 0 0 0 0 4 14 11 7 1 0 0 0 1 7 9 10 6 0 0 0 0 0 3 8 9 0 0 0 0 5 8 12 7 0 0 0 0 9 14 9 2 0 0 