P2
8 8
16
0 0 7 13 14 11 5 0 0 1 9 9 10 13 7 0 0 0 2 0 6 12 3 0 0 0 3 7 13 12 3 0 0 1 8 13 15 11 4 0 0 0 4 13 9 3 0 0 0 0 5 13 4 0 0 0 0 0 9 11 1 0 0 0 