P2
8 8
16
0 0 2 10 7 1 0 0 0 0 8 13 5 0 0 0 0 1 12 8 0 0 0 0 0 2 13 6 2 1 0 0 0 3 14 11 11 9 2 0 0 2 14 11 7 11 9 0 0 0 10 12 6 11 11 0 0 0 2 10 14 12 5 0 