P2
8 8
16
0 0 4 13 10 2 0 0 0 1 13 13 12 10 0 0 0 3 14 4 2 12 3 0 0 5 12 1 0 9 6 0 0 5 11 0 0 8 7 0 0 3 13 1 1 11 6 0 0 0 13 10 10 13 2 0 0 0 4 13 13 5 0 0 