P2
8 8
16
0 0 8 14 13 5 0 0 0 4 12 9 11 10 1 0 0 1 3 3 11 9 0 0 0 0 1 10 14 6 0 0 0 0 1 7 12 11 2 0 0 0 0 0 3 12 6 0 0 0 7 6 8 13 5 0 0 0 9 14 12 7 1 0 