P2
8 8
16
0 0 1 8 11 9 4 0 0 0 8 13 8 9 8 1 0 2 12 7 5 12 7 0 0 3 11 9 10 14 6 0 0 1 6 8 11 13 3 0 0 0 1 4 12 8 0 0 0 0 0 7 12 3 0 0 0 0 1 10 8 1 0 0 