P2
8 8
16
0 0 0 3 12 5 0 0 0 0 0 9 12 4 1 0 0 0 5 12 7 6 3 0 0 2 12 10 6 11 4 0 0 6 13 8 11 14 3 0 0 6 9 10 14 13 1 0 0 1 3 5 14 8 0 0 0 0 0 4 12 5 0 0 