P2
8 8
16
0 0 10 13 6 0 0 0 0 5 14 12 11 3 0 0 0 4 8 4 11 4 0 0 0 1 2 5 11 3 0 0 0 0 1 8 10 1 0 0 0 0 4 11 7 1 0 0 0 1 11 14 12 11 7 0 0 0 10 14 13 12 9 1 