P2
8 8
16
0 0 6 13 12 5 0 0 0 2 13 9 10 9 1 0 0 4 13 5 8 11 1 0 0 2 11 12 12 13 2 0 0 0 3 5 6 12 5 0 0 0 2 1 1 11 7 0 0 0 7 6 6 12 6 0 0 0 6 13 13 9 2 0 