P2
8 8
16
0 0 1 11 8 1 1 0 0 0 8 14 4 4 4 0 0 2 14 7 2 9 6 0 0 6 15 8 10 14 7 0 0 4 13 13 15 13 4 0 0 0 3 8 14 6 0 0 0 0 0 10 11 1 0 0 0 0 1 12 7 0 0 0 