P2
8 8
16
0 1 9 14 12 4 0 0 0 4 12 9 12 9 1 0 0 1 2 4 13 7 0 0 0 0 2 12 13 4 0 0 0 0 2 8 13 11 1 0 0 0 0 0 4 14 5 0 0 0 7 6 9 14 4 0 0 0 11 14 12 6 0 0 