P2
8 8
16
0 0 3 12 11 3 0 0 0 0 7 15 15 7 0 0 0 0 8 15 15 7 0 0 0 0 8 15 14 6 0 0 0 0 8 15 14 5 0 0 0 0 8 15 14 5 0 0 0 0 8 15 14 7 0 0 0 0 3 12 12 5 0 0 