P2
8 8
16
0 0 4 13 11 2 0 0 0 1 13 12 11 10 0 0 0 4 14 3 2 12 3 0 0 5 12 1 0 8 7 0 0 5 11 0 0 6 8 0 0 3 13 1 0 8 8 0 0 0 12 8 7 14 4 0 0 0 4 13 14 8 0 0 