P2
8 8
16
0 0 8 14 10 2 0 0 0 3 13 12 13 9 0 0 0 3 9 4 8 12 0 0 0 0 3 1 7 12 0 0 0 0 0 1 11 9 0 0 0 0 0 6 14 5 0 0 0 0 7 14 14 10 6 0 0 0 8 13 11 10 9 2 