P2
8 8
16
0 0 0 2 13 4 0 0 0 0 0 8 13 2 0 0 0 0 1 13 8 2 1 0 0 0 9 12 3 8 4 0 0 4 14 6 6 13 4 0 0 11 15 13 14 14 2 0 0 6 9 9 15 10 0 0 0 0 0 3 13 5 0 0 