P2
8 8
16
0 0 9 14 14 10 2 0 0 0 9 10 12 13 3 0 0 0 0 0 10 11 0 0 0 0 4 8 14 10 3 0 0 2 11 15 15 13 5 0 0 0 4 14 9 3 1 0 0 0 6 14 2 0 0 0 0 0 10 10 0 0 0 0 