P2
8 8
16
0 0 4 12 14 14 9 1 0 0 7 10 9 13 12 1 0 0 1 0 2 13 7 0 0 0 2 5 10 14 4 0 0 0 6 12 15 12 4 0 0 0 2 9 12 4 0 0 0 0 2 13 7 0 0 0 0 0 5 12 2 0 0 0 