P2
8 8
16
0 0 7 13 11 3 0 0 0 2 14 9 11 9 0 0 0 4 13 4 8 12 1 0 0 2 11 11 12 14 3 0 0 0 2 5 5 13 6 0 0 0 0 0 0 10 8 0 0 0 6 5 5 12 7 0 0 0 7 14 14 10 2 0 