P2
8 8
16
0 0 4 12 12 5 0 0 0 2 13 9 9 12 2 0 0 4 12 4 7 12 2 0 0 1 10 13 14 7 0 0 0 0 7 14 13 7 0 0 0 1 10 7 5 12 3 0 0 1 11 7 4 13 5 0 0 0 4 13 13 9 1 0 