P2
8 8
16
0 1 12 13 4 0 0 0 0 6 14 14 9 0 0 0 0 5 7 9 10 0 0 0 0 1 2 11 8 0 0 0 0 0 3 14 4 0 0 0 0 0 8 12 1 0 0 0 0 2 14 14 12 12 6 0 0 1 12 14 13 12 7 0 