P2
8 8
16
0 0 7 12 13 11 3 0 0 2 14 12 8 7 2 0 0 3 14 6 2 0 0 0 0 4 14 13 12 5 0 0 0 1 5 5 9 11 2 0 0 0 0 0 4 13 2 0 0 0 5 6 11 12 1 0 0 0 8 14 11 3 0 0 