P2
8 8
16
0 0 0 5 12 2 0 0 0 0 1 13 9 1 1 0 0 0 8 13 2 5 5 0 0 3 14 6 3 12 6 0 0 9 15 10 12 15 5 0 0 6 11 11 15 12 1 0 0 0 1 4 14 4 0 0 0 0 0 6 12 1 0 0 