P2
8 8
16
0 0 6 13 13 5 0 0 0 2 12 10 10 12 1 0 0 1 4 3 9 11 1 0 0 0 0 7 14 9 1 0 0 0 0 4 9 13 4 0 0 0 0 0 1 10 9 0 0 0 8 5 5 13 8 0 0 0 7 14 14 10 2 0 