P2
8 8
16
0 0 4 12 4 0 0 0 0 0 11 11 1 0 0 0 0 1 14 4 0 0 0 0 0 3 14 4 3 1 0 0 0 5 14 11 12 10 2 0 0 3 15 10 6 11 9 0 0 1 13 11 6 12 9 0 0 0 4 12 14 11 3 0 