P2
8 8
16
0 0 0 0 10 12 1 0 0 0 0 5 14 14 2 0 0 0 4 11 15 13 1 0 0 3 11 13 14 12 1 0 0 3 9 7 14 12 1 0 0 0 1 3 14 12 1 0 0 0 0 2 13 13 1 0 0 0 0 0 10 13 2 0 