P2
8 8
16
0 0 6 12 12 7 0 0 0 2 13 10 8 12 2 0 0 2 11 6 8 11 2 0 0 1 8 13 12 5 0 0 0 0 7 15 10 1 0 0 0 1 11 9 12 3 0 0 0 1 12 7 12 7 0 0 0 0 7 14 12 3 0 0 