P2
8 8
16
0 0 8 13 14 11 2 0 0 4 14 13 11 9 2 0 0 6 13 5 0 0 0 0 0 5 13 9 2 0 0 0 0 1 8 12 9 1 0 0 0 0 1 6 12 4 0 0 0 0 6 10 12 4 0 0 0 0 9 14 7 1 0 0 