P2
8 8
16
0 0 0 9 11 1 0 0 0 0 5 15 8 1 0 0 0 0 10 12 1 0 0 0 0 1 13 9 2 0 0 0 0 1 14 11 10 7 1 0 0 0 14 12 8 11 8 0 0 0 8 13 6 9 12 1 0 0 0 8 14 14 7 0 