P2
8 8
16
0 0 7 13 13 4 0 0 0 4 14 10 12 10 1 0 0 2 5 1 11 9 0 0 0 0 0 4 14 4 0 0 0 0 1 12 10 0 0 0 0 0 8 13 2 0 0 0 0 2 13 12 7 7 3 0 0 0 8 14 14 12 5 0 