P2
8 8
16
0 1 11 12 9 7 3 0 0 4 14 9 9 11 6 0 0 4 11 6 11 13 3 0 0 2 8 11 14 8 1 0 0 0 4 12 11 2 0 0 0 0 6 14 7 0 0 0 0 1 11 13 3 0 0 0 0 1 12 10 1 0 0 0 