P2
8 8
16
0 0 0 8 12 5 0 0 0 0 3 13 14 7 0 0 0 2 10 14 14 5 0 0 0 5 12 14 14 4 0 0 0 2 6 11 15 4 0 0 0 0 0 8 15 6 0 0 0 0 0 9 15 9 1 0 0 0 0 7 14 10 2 0 