P2
8 8
16
0 0 5 12 10 2 0 0 0 0 13 13 13 10 0 0 0 3 14 5 3 13 3 0 0 4 13 2 0 10 6 0 0 5 12 1 0 10 6 0 0 3 13 2 2 14 4 0 0 0 13 12 13 12 1 0 0 0 5 13 12 3 0 0 