P2
8 8
16
0 0 11 13 4 0 0 0 0 4 14 13 12 0 0 0 0 4 9 4 13 2 0 0 0 1 3 3 13 2 0 0 0 0 0 5 13 1 0 0 0 0 1 11 10 1 0 0 0 0 10 15 13 11 8 0 0 0 10 13 12 12 11 2 