P2
8 8
16
0 0 1 7 12 12 5 0 0 0 9 13 9 12 9 0 0 3 13 8 7 13 7 0 0 2 11 11 12 14 5 0 0 0 2 4 6 13 2 0 0 0 0 0 9 10 0 0 0 0 0 5 13 5 0 0 0 0 1 8 9 1 0 0 